<svg width="57" height="33" viewBox="0 0 57 33" fill="none" xmlns="http://www.w3.org/2000/svg">
<path d="M10.528 15.048C10.56 16.3493 10.2133 17.3573 9.488 18.072C8.77333 18.7867 7.94133 19.144 6.992 19.144C6.64 19.144 6.304 19.08 5.984 18.952C5.67467 18.8133 5.43467 18.6587 5.264 18.488C5.09333 18.3173 4.92267 18.168 4.752 18.04C4.592 17.9013 4.464 17.832 4.368 17.832C4.22933 17.8427 4.08 17.9067 3.92 18.024C3.76 18.1413 3.61067 18.2693 3.472 18.408C3.33333 18.5467 3.136 18.68 2.88 18.808C2.63467 18.936 2.368 19.016 2.08 19.048C1.73867 19.08 1.376 19.0533 0.992 18.968C0.608 18.8827 0.4 18.712 0.368 18.456C0.357333 18.3173 0.4 18.184 0.496 18.056C0.602667 17.9173 0.72 17.8 0.848 17.704C0.986667 17.5973 1.10933 17.4427 1.216 17.24C1.32267 17.0267 1.376 16.7813 1.376 16.504V11.784C1.376 10.856 1.19467 10.3547 0.832 10.28C0.64 10.248 0.496 10.1733 0.4 10.056C0.314667 9.928 0.304 9.79467 0.368 9.656C0.432 9.51733 0.570667 9.416 0.784 9.352C0.901333 9.32 1.104 9.256 1.392 9.16C1.68 9.064 1.872 9 1.968 8.968C2.064 8.936 2.21867 8.88267 2.432 8.808C2.656 8.72267 2.832 8.65333 2.96 8.6C3.088 8.536 3.248 8.46133 3.44 8.376C3.632 8.28 3.82933 8.17333 4.032 8.056C4.24533 7.93867 4.41067 7.88 4.528 7.88C4.592 7.88 4.65067 7.896 4.704 7.928C4.75733 7.94933 4.8 7.98667 4.832 8.04C4.87467 8.09333 4.90667 8.152 4.928 8.216C4.94933 8.26933 4.96533 8.344 4.976 8.44C4.99733 8.536 5.008 8.62133 5.008 8.696C5.01867 8.77067 5.024 8.86667 5.024 8.984C5.024 9.10133 5.024 9.20267 5.024 9.288C5.024 9.36267 5.01867 9.46933 5.008 9.608C5.008 9.736 5.008 9.832 5.008 9.896C4.99733 10.0347 4.992 10.8133 4.992 12.232C5.45067 11.5707 6.11733 11.2027 6.992 11.128C7.90933 11.064 8.72 11.3947 9.424 12.12C10.128 12.8347 10.496 13.8107 10.528 15.048ZM5.696 16.904C5.97333 17.2987 6.26133 17.4587 6.56 17.384C6.85867 17.3093 7.04 17.0267 7.104 16.536C7.168 16.0453 7.11467 15.48 6.944 14.84C6.77333 14.1787 6.54933 13.6507 6.272 13.256C5.99467 12.8613 5.70667 12.7013 5.408 12.776C5.10933 12.8507 4.928 13.1387 4.864 13.64C4.8 14.1307 4.85333 14.6907 5.024 15.32C5.19467 15.9707 5.41867 16.4987 5.696 16.904ZM17.9935 15.752C18.0682 15.624 18.1802 15.56 18.3295 15.56C18.4682 15.56 18.5855 15.6133 18.6815 15.72C18.7775 15.8267 18.8042 15.9547 18.7615 16.104C18.5162 17.0107 17.9775 17.7467 17.1455 18.312C16.3242 18.8667 15.3802 19.144 14.3135 19.144C13.0442 19.144 11.9615 18.7653 11.0655 18.008C10.1802 17.2507 9.7375 16.2853 9.7375 15.112C9.7375 13.9707 10.1482 13.0267 10.9695 12.28C11.8015 11.5333 12.8255 11.1333 14.0415 11.08C15.4175 11.016 16.4575 11.208 17.1615 11.656C17.8655 12.0933 18.2655 12.6213 18.3615 13.24C18.4255 13.6773 18.3562 14.072 18.1535 14.424C17.9615 14.776 17.6788 15.0533 17.3055 15.256C16.9428 15.448 16.5535 15.5973 16.1375 15.704C15.7215 15.8 15.3055 15.848 14.8895 15.848C14.4095 15.848 14.0362 15.784 13.7695 15.656C14.0362 16.0827 14.3668 16.4133 14.7615 16.648C15.1668 16.872 15.5882 16.968 16.0255 16.936C16.4095 16.9147 16.7775 16.7973 17.1295 16.584C17.4815 16.3707 17.7695 16.0933 17.9935 15.752ZM14.1695 11.592C13.8282 11.624 13.5615 11.8747 13.3695 12.344C13.1882 12.8133 13.1135 13.2773 13.1455 13.736C13.1775 14.216 13.2842 14.6693 13.4655 15.096C13.6362 15.1173 13.7642 15.128 13.8495 15.128C14.2548 15.128 14.5908 14.9627 14.8575 14.632C15.1242 14.2907 15.2522 13.8213 15.2415 13.224C15.2308 12.7973 15.1242 12.4133 14.9215 12.072C14.7295 11.72 14.4788 11.56 14.1695 11.592ZM27.3279 16.488C27.3279 16.7653 27.3812 17.0107 27.4879 17.224C27.5945 17.4373 27.7119 17.5973 27.8399 17.704C27.9785 17.8 28.0959 17.9173 28.1919 18.056C28.2879 18.184 28.3305 18.3173 28.3199 18.456C28.2879 18.8613 27.3545 19.064 25.5199 19.064C25.1999 19.064 24.9225 19.0107 24.6879 18.904C24.4639 18.7973 24.2879 18.6693 24.1599 18.52C24.0425 18.36 23.9465 18.1573 23.8719 17.912C23.8079 17.6667 23.7652 17.4427 23.7439 17.24C23.7225 17.0267 23.7119 16.7813 23.7119 16.504L23.6799 13.992C23.6159 14.152 23.5199 14.2853 23.3919 14.392C23.2745 14.488 23.0985 14.6 22.8639 14.728C22.6399 14.8453 22.4692 14.9467 22.3519 15.032C21.7439 15.4373 21.5092 15.9973 21.6479 16.712C21.6905 16.9573 21.8079 17.192 21.9999 17.416C22.1919 17.6293 22.4692 17.7413 22.8319 17.752C23.1092 17.7627 23.2372 17.8747 23.2159 18.088C23.1945 18.3653 22.9812 18.616 22.5759 18.84C22.2772 19 21.9519 19.096 21.5999 19.128C20.5972 19.2133 19.7439 19.0267 19.0399 18.568C18.3359 18.1093 18.0052 17.48 18.0479 16.68C18.0692 16.328 18.1599 16.0187 18.3199 15.752C18.4799 15.4747 18.6505 15.256 18.8319 15.096C19.0239 14.936 19.3225 14.776 19.7279 14.616C20.1439 14.456 20.4692 14.344 20.7039 14.28C20.9492 14.2053 21.3385 14.104 21.8719 13.976C21.9572 13.9547 22.0212 13.9387 22.0639 13.928C22.6719 13.7787 23.0772 13.5547 23.2799 13.256C23.4932 12.9467 23.5145 12.632 23.3439 12.312C23.1519 12.0133 22.8745 11.864 22.5119 11.864C22.3092 11.8747 22.1332 11.9387 21.9839 12.056C21.8345 12.1733 21.7119 12.3173 21.6159 12.488C21.5199 12.648 21.4185 12.8133 21.3119 12.984C21.2052 13.1547 21.0612 13.304 20.8799 13.432C20.6985 13.56 20.4745 13.6293 20.2079 13.64C19.7812 13.6613 19.4665 13.48 19.2639 13.096C19.0719 12.712 19.1252 12.3387 19.4239 11.976C19.9359 11.3573 21.0132 11.016 22.6559 10.952C25.4612 10.8453 26.9652 12.0453 27.1679 14.552C27.1785 14.7333 27.1892 14.9147 27.1999 15.096C27.2212 15.2773 27.2372 15.4693 27.2479 15.672C27.2692 15.8747 27.2959 16.1467 27.3279 16.488ZM37.115 16.488C37.115 16.7653 37.1683 17.0107 37.275 17.224C37.3817 17.4373 37.499 17.592 37.627 17.688C37.7657 17.784 37.883 17.9013 37.979 18.04C38.0857 18.168 38.1337 18.3013 38.123 18.44C38.0803 18.856 37.1417 19.064 35.307 19.064C34.3257 19.064 33.7497 18.5787 33.579 17.608C33.1203 18.472 32.379 18.968 31.355 19.096C30.363 19.224 29.5417 19.048 28.891 18.568C28.251 18.088 27.931 17.432 27.931 16.6V14.808C27.931 13.88 27.7497 13.3787 27.387 13.304C27.195 13.272 27.051 13.1973 26.955 13.08C26.8697 12.952 26.859 12.8187 26.923 12.68C26.987 12.5413 27.1257 12.44 27.339 12.376C27.4563 12.344 27.659 12.28 27.947 12.184C28.235 12.088 28.427 12.024 28.523 11.992C28.619 11.96 28.7737 11.9067 28.987 11.832C29.211 11.7467 29.387 11.6773 29.515 11.624C29.643 11.56 29.803 11.4853 29.995 11.4C30.187 11.304 30.3843 11.1973 30.587 11.08C30.8003 10.9627 30.9657 10.904 31.083 10.904C31.147 10.904 31.2057 10.92 31.259 10.952C31.3123 10.9733 31.355 11.0107 31.387 11.064C31.4297 11.1173 31.4617 11.176 31.483 11.24C31.5043 11.2933 31.5203 11.368 31.531 11.464C31.5523 11.56 31.563 11.6453 31.563 11.72C31.5737 11.7947 31.579 11.8907 31.579 12.008C31.579 12.1253 31.579 12.2267 31.579 12.312C31.579 12.3867 31.5737 12.4933 31.563 12.632C31.563 12.76 31.563 12.856 31.563 12.92V15.368C31.563 16.36 31.611 16.9893 31.707 17.256C31.835 17.544 32.027 17.6933 32.283 17.704C32.6457 17.704 32.9283 17.528 33.131 17.176C33.3337 16.824 33.4563 16.3973 33.499 15.896V14.808C33.499 13.88 33.3177 13.3787 32.955 13.304C32.763 13.272 32.619 13.1973 32.523 13.08C32.4377 12.952 32.427 12.8187 32.491 12.68C32.555 12.5413 32.6937 12.44 32.907 12.376C33.0243 12.344 33.227 12.28 33.515 12.184C33.803 12.088 33.995 12.024 34.091 11.992C34.187 11.96 34.3417 11.9067 34.555 11.832C34.779 11.7467 34.955 11.6773 35.083 11.624C35.211 11.56 35.371 11.4853 35.563 11.4C35.755 11.304 35.9523 11.1973 36.155 11.08C36.3683 10.9627 36.5337 10.904 36.651 10.904C36.715 10.904 36.7737 10.92 36.827 10.952C36.8803 10.9733 36.923 11.0107 36.955 11.064C36.9977 11.1173 37.0297 11.176 37.051 11.24C37.0723 11.2933 37.0883 11.368 37.099 11.464C37.1203 11.56 37.131 11.6453 37.131 11.72C37.1417 11.7947 37.147 11.8907 37.147 12.008C37.147 12.1253 37.147 12.2267 37.147 12.312C37.147 12.3867 37.1417 12.4933 37.131 12.632C37.131 12.76 37.131 12.856 37.131 12.92C37.1203 13.432 37.115 14.6213 37.115 16.488ZM54.6346 11.096C54.976 11.096 55.3173 11.1493 55.6586 11.256C56.0106 11.352 56.1813 11.512 56.1706 11.736C56.1706 11.8853 56.1066 12.0293 55.9786 12.168C55.8506 12.3067 55.7013 12.4293 55.5306 12.536C55.3706 12.6427 55.1893 12.8027 54.9866 13.016C54.7946 13.2293 54.64 13.4747 54.5226 13.752L53.3866 16.392C53.088 17.1173 52.8426 17.6987 52.6506 18.136C52.4586 18.5733 52.2346 19.048 51.9786 19.56C51.7226 20.0827 51.488 20.488 51.2746 20.776C51.0613 21.0747 50.8213 21.3573 50.5546 21.624C50.288 21.8907 50.0053 22.0827 49.7066 22.2C49.408 22.3173 49.088 22.3813 48.7466 22.392C47.4346 22.424 46.5173 21.9867 45.9946 21.08C45.76 20.7387 45.728 20.36 45.8986 19.944C46.0693 19.528 46.4106 19.2933 46.9226 19.24C47.3173 19.1973 47.6373 19.2827 47.8826 19.496C48.1386 19.7093 48.3093 19.9547 48.3946 20.232C48.4906 20.52 48.608 20.7813 48.7466 21.016C48.896 21.2613 49.0666 21.384 49.2586 21.384C49.2906 21.384 49.3173 21.3787 49.3386 21.368C49.552 21.3147 49.68 21.144 49.7226 20.856C49.7653 20.568 49.728 20.2 49.6106 19.752C49.4933 19.3147 49.344 18.856 49.1626 18.376C48.9813 17.8853 48.7626 17.3733 48.5066 16.84C48.2506 16.296 48.0266 15.8267 47.8346 15.432C47.6426 15.0373 47.456 14.6693 47.2746 14.328C47.0933 13.976 46.9973 13.7947 46.9866 13.784C46.8266 13.4533 46.608 13.1653 46.3306 12.92C46.0533 12.664 45.84 12.456 45.6906 12.296C45.552 12.136 45.504 11.944 45.5466 11.72C45.632 11.2933 46.4693 11.08 48.0586 11.08C50 11.08 51.0346 11.2933 51.1626 11.72C51.216 11.8587 51.168 12.024 51.0186 12.216C50.88 12.408 50.7626 12.6 50.6666 12.792C50.5706 12.984 50.6026 13.304 50.7626 13.752L52.0586 16.888C52.272 16.408 52.5226 15.7733 52.8106 14.984C53.0986 14.1947 53.248 13.784 53.2586 13.752C53.4186 13.2827 53.4453 12.9627 53.3386 12.792C53.232 12.6213 53.088 12.4453 52.9066 12.264C52.736 12.072 52.6613 11.8907 52.6826 11.72C52.736 11.304 53.3866 11.096 54.6346 11.096Z" fill="#FFD2DE"/>
<path d="M29.192 24.64C29.192 24.864 29.2613 24.976 29.4 24.976C29.4747 24.976 29.5547 24.9493 29.64 24.896C29.7253 24.8533 29.7947 24.8053 29.848 24.752C30.0613 24.592 30.248 24.3467 30.408 24.016C30.5787 23.696 30.7013 23.4027 30.776 23.136C30.8293 22.9547 30.856 22.768 30.856 22.576C30.8667 22.3947 30.872 22.192 30.872 21.968C30.744 22.0427 30.5947 22.1707 30.424 22.352C30.264 22.544 30.136 22.6987 30.04 22.816C29.848 23.0507 29.656 23.3333 29.464 23.664C29.2827 23.9947 29.192 24.32 29.192 24.64ZM29.048 19.408C29.048 19.2053 29.0907 19.0133 29.176 18.832C29.272 18.6507 29.384 18.496 29.512 18.368C29.6507 18.2293 29.7947 18.1227 29.944 18.048C30.0933 17.9733 30.2267 17.936 30.344 17.936C30.4613 17.936 30.5467 17.9787 30.6 18.064C30.664 18.1493 30.6693 18.2933 30.616 18.496C30.52 18.5173 30.4453 18.5333 30.392 18.544C30.3493 18.5547 30.312 18.5653 30.28 18.576C30.248 18.5867 30.216 18.608 30.184 18.64C30.152 18.672 30.104 18.72 30.04 18.784C29.8267 19.0187 29.7307 19.2053 29.752 19.344C29.7733 19.4827 29.8587 19.6213 30.008 19.76C30.1573 19.888 30.344 20.0427 30.568 20.224C30.8027 20.3947 31.0213 20.6347 31.224 20.944C31.4587 20.784 31.6987 20.5973 31.944 20.384L33.432 19.344C33.6773 19.1733 33.8853 19.088 34.056 19.088C34.184 19.088 34.2373 19.1413 34.216 19.248C34.1947 19.3547 34.0933 19.4613 33.912 19.568L32.824 20.32C32.7813 20.3413 32.6853 20.4053 32.536 20.512C32.3973 20.608 32.248 20.72 32.088 20.848C31.9387 20.9653 31.8 21.0773 31.672 21.184C31.5547 21.2907 31.4907 21.36 31.48 21.392C31.4693 21.4453 31.4853 21.5467 31.528 21.696C31.5813 21.8453 31.6133 22.0373 31.624 22.272C31.6347 22.5173 31.5973 22.8107 31.512 23.152C31.4373 23.504 31.2667 23.9093 31 24.368C30.7653 24.7627 30.5093 25.0507 30.232 25.232C29.9547 25.424 29.6933 25.52 29.448 25.52C29.224 25.52 29.0427 25.4453 28.904 25.296C28.7547 25.1467 28.68 24.928 28.68 24.64C28.68 24.2773 28.776 23.9253 28.968 23.584C29.1493 23.2427 29.352 22.928 29.576 22.64C29.8107 22.352 30.0347 22.1067 30.248 21.904C30.4613 21.6907 30.6 21.536 30.664 21.44C30.536 21.216 30.3813 21.024 30.2 20.864C30.0187 20.6933 29.8427 20.5387 29.672 20.4C29.5013 20.2507 29.352 20.1013 29.224 19.952C29.1067 19.8027 29.048 19.6213 29.048 19.408ZM33.657 20.768C33.657 20.3733 33.673 19.952 33.705 19.504C33.7477 19.0453 33.801 18.5867 33.865 18.128C33.929 17.6587 34.0037 17.2053 34.089 16.768C34.1743 16.32 34.265 15.9147 34.361 15.552C34.393 15.4347 34.4303 15.3067 34.473 15.168C34.5157 15.0187 34.5637 14.88 34.617 14.752C34.6703 14.624 34.729 14.5173 34.793 14.432C34.8677 14.336 34.9583 14.288 35.065 14.288C35.193 14.288 35.273 14.336 35.305 14.432C35.337 14.528 35.337 14.64 35.305 14.768C35.2837 14.896 35.2517 15.0187 35.209 15.136C35.1663 15.2533 35.1397 15.3333 35.129 15.376C35.0543 15.6427 34.969 15.9947 34.873 16.432C34.7877 16.8693 34.697 17.344 34.601 17.856C34.5157 18.368 34.441 18.9013 34.377 19.456C34.313 20 34.2703 20.5227 34.249 21.024C34.2277 21.5253 34.233 21.9787 34.265 22.384C34.3077 22.8 34.3877 23.12 34.505 23.344C34.6863 23.248 34.8357 23.104 34.953 22.912C35.0703 22.72 35.1717 22.5333 35.257 22.352C35.5023 21.8827 35.7423 21.3867 35.977 20.864C36.2117 20.3413 36.457 19.8507 36.713 19.392C36.7983 19.2213 36.889 19.136 36.985 19.136C37.0277 19.136 37.0597 19.1573 37.081 19.2C37.113 19.232 37.129 19.2693 37.129 19.312C37.129 19.3333 37.1023 19.4027 37.049 19.52C36.9957 19.6267 36.937 19.7493 36.873 19.888C36.809 20.016 36.745 20.1387 36.681 20.256C36.617 20.3733 36.5743 20.4533 36.553 20.496C36.4677 20.6667 36.377 20.864 36.281 21.088C36.185 21.3013 36.089 21.52 35.993 21.744C35.897 21.9573 35.801 22.1653 35.705 22.368C35.609 22.5707 35.5183 22.7467 35.433 22.896C35.3903 22.96 35.337 23.04 35.273 23.136C35.2197 23.2427 35.1557 23.344 35.081 23.44C35.0063 23.536 34.921 23.616 34.825 23.68C34.7397 23.744 34.649 23.776 34.553 23.776C34.3397 23.776 34.169 23.6693 34.041 23.456C33.9237 23.2427 33.833 22.976 33.769 22.656C33.7157 22.3467 33.6837 22.0213 33.673 21.68C33.6623 21.328 33.657 21.024 33.657 20.768ZM37.2375 21.632C37.3975 21.5893 37.5415 21.4453 37.6695 21.2C37.7975 20.9547 37.8882 20.6827 37.9415 20.384C37.9948 20.0853 38.0055 19.8027 37.9735 19.536C37.9522 19.2693 37.8722 19.088 37.7335 18.992C37.7015 19.1093 37.6428 19.28 37.5575 19.504C37.4722 19.7173 37.3868 19.952 37.3015 20.208C37.2268 20.464 37.1735 20.72 37.1415 20.976C37.1202 21.232 37.1522 21.4507 37.2375 21.632ZM36.4375 21.088C36.4375 20.9067 36.4802 20.6293 36.5655 20.256C36.6615 19.8827 36.7842 19.5093 36.9335 19.136C37.0935 18.7627 37.2695 18.4373 37.4615 18.16C37.6535 17.872 37.8455 17.728 38.0375 17.728C38.1442 17.728 38.2188 17.776 38.2615 17.872C38.3042 17.968 38.3148 18.048 38.2935 18.112C38.2722 18.1653 38.2295 18.2187 38.1655 18.272C38.1122 18.3253 38.0642 18.384 38.0215 18.448C38.0428 18.5227 38.0962 18.6027 38.1815 18.688C38.2668 18.7733 38.3468 18.896 38.4215 19.056C38.5068 19.216 38.5655 19.424 38.5975 19.68C38.6295 19.9253 38.6028 20.256 38.5175 20.672C38.4002 21.2267 38.2135 21.6427 37.9575 21.92C37.7015 22.1973 37.4508 22.336 37.2055 22.336C36.9922 22.336 36.8108 22.2293 36.6615 22.016C36.5122 21.8133 36.4375 21.504 36.4375 21.088Z" fill="#CF7486"/>
<path d="M43.5234 25.9805C40.1836 25.9805 38.6016 22.1836 38.6016 19.8105V7.64648H36V6.67969H37.7578C40.4648 6.67969 41.6777 4.55273 41.6777 2.77734C41.6777 1.51172 41.0625 0.439453 39.9375 0.439453L39.9023 0C44.2441 0 44.2793 2.02148 44.2793 6.67969H49.0254V7.64648H44.2793V20.8125C44.2793 23.0449 45.2988 24.1172 46.6699 24.1172C47.3379 24.1172 48.0938 23.8711 48.8496 23.3789L49.2012 23.8535C48.1465 25.1367 46.0547 25.9805 43.5234 25.9805Z" fill="#CF7486"/>
</svg>
